<svg width="533" height="534" viewBox="0 0 533 534" fill="none" xmlns="http://www.w3.org/2000/svg">
<g clip-path="url(#clip0)">
<path d="M349.959 491.61H273.169C302.086 475.886 328.909 455.917 352.834 431.992C418.145 366.679 454.114 279.844 454.114 187.478C454.114 84.4777 370.348 0 266.636 0C166.444 0 79.1575 80.7927 79.1575 187.478V512.441C79.1575 523.946 88.4835 533.272 99.9884 533.272C117.077 533.272 347.962 533.272 349.959 533.272C361.464 533.272 370.79 523.946 370.79 512.441C370.79 500.936 361.464 491.61 349.959 491.61ZM266.636 41.6618C304.702 41.6618 339.402 56.3299 365.397 80.3032C360.358 79.5512 355.205 79.1575 349.959 79.1575C315.926 79.1575 285.653 95.5671 266.636 120.888C247.618 95.5671 217.346 79.1575 183.312 79.1575C178.067 79.1575 172.913 79.5512 167.874 80.3032C193.869 56.3299 228.569 41.6618 266.636 41.6618ZM121.29 175.778C125.024 144.861 151.405 120.819 183.312 120.819C217.771 120.819 245.805 148.854 245.805 183.312C245.805 194.817 255.131 204.143 266.636 204.143C278.141 204.143 287.467 194.817 287.467 183.312C287.467 148.854 315.501 120.819 349.959 120.819C381.866 120.819 408.248 144.861 411.981 175.778C418.237 254.187 352.954 329.129 266.636 329.129C180.933 329.129 114.989 254.768 121.29 175.778ZM120.819 301.005C155.217 343.538 207.8 370.79 266.636 370.79C306.078 370.79 342.707 358.537 372.937 337.651C359.575 361.109 342.981 382.924 323.374 402.532C268.888 457.019 197.366 488.286 120.819 491.36V301.005Z" fill="#C158DC"/>
<path d="M261.48 292.553C264.328 295.4 268.944 295.4 271.792 292.553L293.594 270.75C298.186 266.157 294.934 258.303 288.439 258.303H244.834C238.338 258.303 235.085 266.157 239.679 270.75L261.48 292.553Z" fill="#C158DC"/>
</g>
<defs>
<clipPath id="clip0">
<rect width="533.272" height="533.272" fill="white"/>
</clipPath>
</defs>
</svg>
